<?xml version="1.0" standalone="no"?>
<!DOCTYPE svg PUBLIC "-//W3C//DTD SVG 20010904//EN"
 "http://www.w3.org/TR/2001/REC-SVG-20010904/DTD/svg10.dtd">
<svg version="1.0" xmlns="http://www.w3.org/2000/svg"
 width="801.000000pt" height="805.000000pt" viewBox="0 0 801.000000 805.000000"
 preserveAspectRatio="xMidYMid meet">

<g transform="translate(0.000000,805.000000) scale(0.100000,-0.100000)"
fill="#000000" stroke="none">
<path d="M0 4025 l0 -4025 4005 0 4005 0 0 4025 0 4025 -4005 0 -4005 0 0
-4025z m2984 2369 c9 -3 16 -10 16 -14 0 -5 16 -44 36 -87 20 -43 60 -130 89
-193 29 -63 87 -191 130 -285 42 -93 86 -190 97 -215 21 -47 58 -126 127 -273
22 -49 41 -90 41 -92 0 -3 23 -54 100 -220 15 -33 38 -82 50 -110 13 -27 36
-79 52 -115 17 -36 40 -87 53 -115 12 -27 34 -75 48 -105 13 -30 49 -109 79
-175 30 -66 70 -154 89 -195 19 -41 100 -218 180 -395 l146 -320 54 -3 c30 -2
69 0 87 3 42 8 48 -11 -73 250 -20 44 -86 186 -145 315 -59 129 -121 264 -138
300 -17 36 -82 178 -145 315 -63 138 -134 291 -157 340 -65 137 -79 173 -73
179 10 9 3131 7 3137 -2 3 -5 -45 -110 -107 -233 l-113 -224 -1122 -3 c-617
-1 -1122 -4 -1122 -6 0 -2 25 -57 56 -122 70 -149 103 -219 247 -524 63 -135
138 -293 166 -353 l51 -107 348 2 347 3 63 120 c34 66 63 127 65 135 2 13 -28
15 -213 18 -142 1 -216 6 -221 13 -4 6 -10 95 -15 198 -4 102 -8 193 -8 201
-1 13 71 15 582 18 357 1 582 -1 582 -7 0 -5 -13 -38 -29 -73 -25 -54 -172
-397 -263 -613 -16 -38 -38 -88 -48 -110 -9 -22 -55 -128 -100 -235 -104 -248
-119 -282 -129 -300 -7 -12 -47 -16 -235 -20 l-226 -5 27 -20 c50 -36 73 -67
88 -119 51 -170 -146 -310 -296 -211 -54 35 -82 86 -83 153 -1 73 23 123 82
168 l45 34 -334 0 -334 0 38 -25 c90 -62 118 -176 64 -267 -34 -58 -81 -88
-149 -94 -45 -5 -62 -1 -108 23 -96 50 -130 156 -81 256 15 31 38 58 64 75
l41 27 -225 5 -224 5 -15 30 c-8 17 -32 69 -54 115 -21 47 -53 117 -71 155
-18 39 -65 142 -105 229 -39 88 -92 202 -116 253 -24 51 -53 116 -65 143 -12
28 -25 50 -29 50 -6 0 -49 -127 -206 -610 -37 -113 -92 -284 -124 -380 l-57
-175 -270 -3 c-209 -2 -273 1 -280 10 -6 7 -88 245 -182 528 -95 283 -176 524
-181 535 -4 11 -40 119 -80 240 -39 121 -75 229 -80 240 -5 11 -34 99 -65 195
-31 96 -61 184 -65 195 -5 11 -18 49 -29 85 -12 36 -26 72 -31 80 -6 10 -10
-361 -10 -1058 l0 -1072 -267 2 -268 3 0 1515 0 1515 389 3 c269 1 393 -1 402
-9 7 -6 26 -52 43 -102 17 -51 53 -157 81 -237 28 -80 62 -176 75 -215 13 -38
48 -140 78 -225 30 -85 64 -184 77 -220 12 -36 24 -72 27 -80 15 -40 107 -304
129 -370 14 -41 29 -84 34 -95 5 -11 25 -67 44 -125 19 -58 54 -157 76 -220
23 -63 50 -143 61 -177 10 -34 25 -76 33 -94 l13 -32 27 84 c41 131 123 399
161 529 11 37 95 315 125 410 5 18 0 40 -16 75 -68 145 -127 273 -279 605 -92
201 -180 394 -197 430 -16 36 -48 104 -70 153 l-41 87 -337 0 c-258 0 -340 3
-348 13 -5 6 -27 55 -47 107 -20 52 -40 104 -46 115 -28 62 -69 172 -69 188 0
16 34 17 579 17 319 0 586 -3 595 -6z m-1484 -4099 c23 -30 46 -55 50 -55 5 0
30 25 56 55 46 54 49 56 93 53 l46 -3 3 -258 2 -257 -25 -12 c-21 -9 -28 -8
-45 7 -19 17 -20 31 -20 212 l0 194 -28 -33 c-16 -18 -32 -45 -35 -59 -4 -15
-14 -30 -23 -33 -25 -9 -54 3 -54 22 0 10 -18 39 -40 66 l-40 48 0 -206 c0
-193 -1 -206 -19 -216 -25 -13 -27 -13 -45 6 -14 13 -16 51 -16 263 0 136 3
251 7 254 3 4 25 7 48 7 40 0 45 -4 85 -55z m690 15 c14 -16 44 -65 68 -109
58 -110 57 -140 -9 -258 -64 -115 -77 -127 -139 -127 -56 0 -82 18 -115 81
-11 21 -32 60 -47 86 -42 71 -39 124 12 211 22 37 40 72 40 76 0 14 43 62 64
71 38 16 99 1 126 -31z m644 30 c14 -5 26 -16 26 -24 0 -26 -30 -38 -107 -45
l-77 -6 -63 -72 -63 -73 0 -104 c0 -133 2 -136 115 -136 95 0 115 11 115 64 0
32 -2 34 -49 40 -27 3 -54 12 -60 20 -15 18 -4 43 22 50 39 10 143 6 155 -6
15 -15 16 -109 2 -159 -17 -62 -47 -74 -181 -74 -182 0 -194 13 -194 204 0
143 -5 129 98 244 46 51 77 77 95 80 54 8 141 7 166 -3z m505 -3 c42 -15 72
-54 76 -98 5 -72 -35 -124 -107 -135 -21 -4 -38 -12 -38 -18 0 -6 32 -58 70
-116 38 -58 70 -113 70 -122 0 -10 -9 -22 -19 -28 -28 -15 -50 8 -144 150 -69
105 -86 125 -107 125 l-25 0 -2 -115 c-2 -63 -5 -125 -8 -136 -6 -25 -35 -36
-59 -22 -14 8 -16 38 -16 262 0 139 3 256 7 259 11 12 266 7 302 -6z m496 -8
c24 -12 26 -15 88 -130 28 -52 47 -100 47 -119 0 -30 -65 -165 -111 -231 -21
-31 -66 -41 -116 -27 -34 9 -64 48 -126 164 -47 89 -36 140 67 303 36 56 89
70 151 40z m676 2 c22 -18 23 -21 7 -37 -15 -16 -34 -18 -153 -23 -39 -2 -41
-4 -87 -81 -61 -100 -61 -121 -2 -219 25 -42 48 -78 51 -81 2 -3 45 -7 95 -10
74 -4 93 -8 102 -23 9 -15 7 -21 -9 -33 -26 -20 -199 -15 -232 6 -12 8 -47 59
-79 114 -66 113 -71 145 -35 211 99 180 117 195 236 195 67 0 87 -4 106 -19z
m544 9 c20 -7 26 -16 23 -33 -3 -21 -7 -22 -145 -27 -78 -3 -145 -8 -149 -13
-8 -8 -7 -134 2 -148 3 -5 34 -9 69 -9 56 0 64 -3 70 -21 10 -32 -8 -43 -80
-47 -36 -2 -65 -7 -66 -11 -10 -89 -9 -135 3 -142 7 -5 70 -9 140 -9 140 0
158 -4 158 -31 0 -32 -43 -40 -214 -37 l-161 3 -3 255 c-1 140 0 260 3 267 6
16 309 18 350 3z m498 1 c68 -16 101 -84 78 -161 -13 -44 -43 -67 -100 -76
-23 -4 -41 -9 -41 -12 0 -3 34 -58 75 -122 45 -71 73 -124 69 -133 -6 -17 -32
-26 -52 -19 -7 2 -54 67 -104 143 -82 126 -94 140 -117 137 l-26 -3 -2 -123
c-1 -68 -4 -130 -7 -138 -7 -17 -66 -19 -66 -1 -5 153 -6 484 -3 498 5 17 15
19 132 19 69 0 143 -4 164 -9z m335 -43 c2 -25 18 -50 61 -97 l57 -64 57 67
c41 48 57 75 57 96 0 36 29 55 54 37 9 -7 19 -28 22 -47 6 -38 13 -28 -116
-183 l-40 -49 0 -114 c0 -102 -2 -114 -19 -124 -25 -13 -27 -13 -45 6 -13 12
-16 39 -16 131 l0 115 -75 84 c-66 74 -75 89 -75 123 0 49 21 74 53 62 16 -6
23 -18 25 -43z"/>
<path d="M2046 2185 c-25 -47 -46 -96 -46 -109 0 -34 89 -186 109 -186 9 0 24
15 35 33 57 98 76 137 76 157 0 34 -92 190 -112 190 -10 0 -33 -31 -62 -85z"/>
<path d="M3126 2272 c-14 -3 -16 -13 -14 -50 l3 -47 96 -3 c105 -3 129 7 129
51 0 44 -13 50 -107 51 -49 1 -97 0 -107 -2z"/>
<path d="M3742 2238 c-11 -18 -35 -62 -52 -96 l-32 -64 32 -61 c86 -165 88
-166 167 -21 18 34 33 72 33 85 0 35 -90 189 -111 189 -10 0 -26 -15 -37 -32z"/>
<path d="M5340 2265 c-6 -7 -10 -31 -8 -52 l3 -38 92 -3 c111 -3 133 5 133 53
0 18 -6 37 -12 42 -7 4 -54 8 -105 10 -67 1 -95 -2 -103 -12z"/>
</g>
</svg>
